<?xml version="1.0" encoding="utf-8"?>
<!-- Generator: Adobe Illustrator 27.5.0, SVG Export Plug-In . SVG Version: 6.00 Build 0)  -->
<svg version="1.1" xmlns="http://www.w3.org/2000/svg" xmlns:xlink="http://www.w3.org/1999/xlink" x="0px" y="0px"
	 viewBox="0 0 500 500" style="enable-background:new 0 0 500 500;" xml:space="preserve">
<g id="Background_Complete">
	<g>
		<g>
			<g>
				<g>
					<path style="fill:#E0E0E0;" d="M455.472,310.415c-0.006-0.006-0.011-0.096-0.017-0.267c-0.005-0.197-0.011-0.445-0.018-0.755
						c-0.01-0.693-0.024-1.658-0.042-2.896c-0.022-2.54-0.055-6.193-0.095-10.798l0.172,0.172
						c-12.701,0.025-32.901,0.066-55.624,0.111c0.125-0.126-0.286,0.283,0.28-0.283v0.004v0.008v0.015v0.03v0.059v0.118l0,0.237
						v0.473v0.943c0,0.628,0,1.254,0,1.877c0,1.247-0.001,2.486-0.001,3.714c-0.002,2.456-0.003,4.872-0.005,7.238l-0.277-0.277
						c15.84,0.051,29.701,0.095,39.642,0.126c4.952,0.033,8.925,0.06,11.701,0.079c1.35,0.016,2.407,0.028,3.164,0.036
						c0.341,0.007,0.613,0.013,0.827,0.018C455.368,310.403,455.467,310.409,455.472,310.415c0.006,0.006-0.081,0.012-0.257,0.018
						c-0.206,0.005-0.467,0.01-0.794,0.018c-0.742,0.009-1.78,0.021-3.104,0.036c-2.76,0.019-6.712,0.046-11.637,0.079
						c-9.99,0.031-23.917,0.076-39.835,0.126l-0.277,0.001l0-0.278c-0.001-2.366-0.003-4.782-0.005-7.238
						c0-1.228-0.001-2.466-0.001-3.714c0-0.624,0-1.249,0-1.877l0-0.943v-0.473v-0.237v-0.118v-0.059v-0.03v-0.015v-0.008v-0.004
						c0.567-0.567,0.159-0.157,0.287-0.284c22.723,0.045,42.923,0.086,55.624,0.111l0.174,0l-0.001,0.172
						c-0.041,4.649-0.073,8.336-0.095,10.9c-0.018,1.221-0.032,2.174-0.042,2.857c-0.007,0.297-0.013,0.535-0.018,0.725
						C455.484,310.342,455.478,310.421,455.472,310.415z"/>
				</g>
			</g>
		</g>
		<g>
			<g>
				<g>
					<path style="fill:#E0E0E0;" d="M463.015,295.699c-0.007-0.007-0.014-0.102-0.021-0.28c-0.006-0.211-0.013-0.467-0.022-0.78
						c-0.012-0.724-0.029-1.709-0.051-2.951c-0.027-2.58-0.064-6.224-0.11-10.706l0.204,0.204c-8.658,0.021-20.438,0.049-33.42,0.08
						c-0.255,0.253,0.342-0.345,0.281-0.282v0.004v0.008v0.015v0.03v0.06v0.121l0,0.242v0.483l0,0.962c0,0.64,0,1.276-0.001,1.909
						c-0.001,1.265-0.002,2.514-0.003,3.746c-0.004,2.462-0.007,4.849-0.01,7.135l-0.27-0.27c9.648,0.052,17.955,0.096,23.909,0.128
						c2.936,0.031,5.29,0.057,6.965,0.075c0.782,0.014,1.405,0.025,1.878,0.034C462.774,295.677,463.004,295.688,463.015,295.699
						c0.011,0.011-0.197,0.022-0.607,0.033c-0.459,0.009-1.063,0.02-1.822,0.034c-1.66,0.018-3.993,0.043-6.903,0.074
						c-5.999,0.032-14.369,0.076-24.091,0.128l-0.27,0.001l0-0.271c-0.003-2.287-0.007-4.674-0.01-7.135
						c-0.001-1.231-0.002-2.481-0.003-3.746c0-0.633-0.001-1.269-0.001-1.909l0-0.962v-0.483v-0.242v-0.121v-0.06v-0.03v-0.015
						v-0.008v-0.004c-0.062,0.06,0.538-0.538,0.286-0.285c12.983,0.031,24.762,0.059,33.42,0.08l0.206,0.001l-0.002,0.203
						c-0.046,4.533-0.083,8.219-0.109,10.829c-0.022,1.223-0.039,2.192-0.051,2.905
						C463.043,295.376,463.029,295.713,463.015,295.699z"/>
				</g>
			</g>
		</g>
	</g>
	<g>
		<g>
			<g>
				<rect x="266.279" y="105.382" style="fill:#EBEBEB;" width="51.814" height="13.707"/>
			</g>
		</g>
		<g>
			<g>
				<g>
					<path style="fill:#E0E0E0;" d="M296.183,133.528c-0.005-0.006-0.011-0.089-0.016-0.249c-0.004-0.184-0.01-0.415-0.017-0.703
						c-0.009-0.645-0.022-1.544-0.039-2.697c-0.021-2.366-0.051-5.768-0.089-10.058l0.16,0.16
						c-11.831,0.024-30.646,0.061-51.811,0.103c0.117-0.118-0.266,0.263,0.261-0.264v0.003v0.007v0.014v0.028v0.055v0.11v0.22
						l0,0.44v0.879c0,0.585,0,1.168,0,1.749c0,1.162-0.001,2.315-0.001,3.459c-0.001,2.288-0.003,4.538-0.004,6.742l-0.258-0.258
						c14.754,0.047,27.664,0.088,36.924,0.117c4.612,0.031,8.314,0.056,10.899,0.074c1.258,0.014,2.242,0.026,2.947,0.034
						c0.317,0.007,0.571,0.012,0.771,0.017C296.085,133.516,296.178,133.522,296.183,133.528c0.006,0.005-0.076,0.011-0.24,0.017
						c-0.192,0.004-0.435,0.01-0.739,0.017c-0.691,0.008-1.658,0.019-2.891,0.034c-2.571,0.017-6.252,0.042-10.839,0.074
						c-9.305,0.029-22.278,0.071-37.104,0.117l-0.258,0.001l0-0.259c-0.001-2.204-0.003-4.454-0.004-6.742
						c0-1.144-0.001-2.297-0.001-3.459c0-0.581,0-1.164,0-1.749l0-0.879v-0.44v-0.22v-0.11v-0.055v-0.028v-0.014v-0.007v-0.003
						c0.528-0.528,0.148-0.146,0.267-0.264c21.165,0.042,39.98,0.08,51.811,0.103l0.162,0l-0.001,0.16
						c-0.038,4.33-0.068,7.764-0.089,10.153c-0.017,1.138-0.03,2.025-0.039,2.661c-0.007,0.277-0.012,0.499-0.017,0.675
						C296.194,133.459,296.189,133.533,296.183,133.528z"/>
				</g>
			</g>
		</g>
	</g>
	<g>
		<g>
			<g>
				<rect x="193.481" y="408.59" style="fill:#EBEBEB;" width="51.814" height="13.707"/>
			</g>
		</g>
		<g>
			<g>
				<g>
					<path style="fill:#E0E0E0;" d="M223.386,436.735c-0.005-0.006-0.011-0.089-0.016-0.249c-0.004-0.184-0.01-0.415-0.017-0.703
						c-0.009-0.645-0.022-1.544-0.039-2.698c-0.021-2.366-0.051-5.768-0.089-10.057l0.161,0.16
						c-11.831,0.024-30.646,0.061-51.811,0.103c0.117-0.117-0.266,0.263,0.261-0.263v0.003v0.007v0.014v0.028v0.055v0.11v0.22
						l0,0.44v0.879c0,0.585,0,1.168,0,1.749c0,1.162-0.001,2.315-0.001,3.459c-0.001,2.288-0.003,4.538-0.005,6.742l-0.258-0.258
						c14.754,0.047,27.665,0.088,36.924,0.117c4.612,0.031,8.314,0.056,10.899,0.073c1.257,0.015,2.242,0.026,2.947,0.034
						c0.317,0.007,0.571,0.012,0.771,0.017C223.288,436.724,223.38,436.729,223.386,436.735c0.005,0.005-0.076,0.011-0.24,0.017
						c-0.192,0.004-0.435,0.01-0.739,0.016c-0.691,0.008-1.658,0.02-2.891,0.034c-2.571,0.017-6.252,0.043-10.839,0.073
						c-9.305,0.029-22.278,0.071-37.104,0.117l-0.258,0.001l0-0.259c-0.001-2.204-0.003-4.454-0.004-6.742
						c0-1.144-0.001-2.297-0.001-3.459c0-0.581,0-1.164,0-1.749l0-0.879v-0.44v-0.22v-0.11v-0.055v-0.028v-0.014v-0.007v-0.003
						c0.528-0.528,0.148-0.147,0.267-0.264c21.165,0.042,39.98,0.08,51.811,0.103l0.162,0l-0.001,0.16
						c-0.038,4.33-0.068,7.764-0.089,10.153c-0.017,1.138-0.03,2.025-0.039,2.661c-0.007,0.277-0.012,0.499-0.017,0.675
						C223.397,436.667,223.391,436.74,223.386,436.735z"/>
				</g>
			</g>
		</g>
	</g>
	<g>
		<g>
			<g>
				<g>
					<path style="fill:#E0E0E0;" d="M445.311,65.383c-0.006-0.006-0.011-0.096-0.017-0.267c-0.005-0.197-0.011-0.445-0.018-0.755
						c-0.01-0.693-0.024-1.658-0.042-2.896c-0.022-2.54-0.055-6.193-0.095-10.798l0.172,0.172
						c-12.701,0.025-32.901,0.066-55.624,0.111c0.125-0.126-0.286,0.283,0.28-0.283v0.004v0.007v0.015v0.03v0.059v0.118l0,0.237
						v0.473v0.944c0,0.628,0,1.254,0,1.877c0,1.247-0.001,2.486-0.001,3.714c-0.002,2.456-0.003,4.872-0.005,7.238l-0.277-0.277
						c15.84,0.05,29.701,0.094,39.642,0.126c4.952,0.033,8.925,0.06,11.701,0.079c1.35,0.016,2.407,0.028,3.164,0.037
						c0.34,0.007,0.613,0.013,0.827,0.018C445.206,65.371,445.305,65.377,445.311,65.383c0.006,0.006-0.081,0.012-0.257,0.018
						c-0.206,0.005-0.467,0.01-0.794,0.018c-0.742,0.009-1.78,0.021-3.104,0.036c-2.76,0.019-6.712,0.046-11.637,0.079
						c-9.99,0.032-23.917,0.076-39.835,0.126l-0.277,0.001l0-0.278c-0.002-2.366-0.003-4.782-0.005-7.238
						c0-1.228-0.001-2.466-0.001-3.714c0-0.624,0-1.249,0-1.877l0-0.944v-0.473v-0.237v-0.118v-0.059v-0.03v-0.015v-0.007v-0.004
						c0.567-0.567,0.159-0.157,0.287-0.284c22.723,0.045,42.923,0.086,55.624,0.111l0.174,0l-0.001,0.172
						c-0.041,4.649-0.073,8.336-0.095,10.9c-0.018,1.221-0.032,2.174-0.042,2.857c-0.007,0.297-0.013,0.535-0.018,0.725
						C445.322,65.31,445.317,65.389,445.311,65.383z"/>
				</g>
			</g>
		</g>
		<g>
			<g>
				<g>
					<path style="fill:#E0E0E0;" d="M452.853,50.667c-0.007-0.007-0.014-0.102-0.021-0.28c-0.006-0.211-0.013-0.467-0.022-0.78
						c-0.012-0.724-0.029-1.709-0.051-2.951c-0.026-2.58-0.064-6.224-0.11-10.706l0.204,0.204c-8.658,0.021-20.438,0.049-33.42,0.08
						c-0.255,0.253,0.342-0.345,0.281-0.282v0.004v0.008v0.015v0.03v0.06v0.121l0,0.242v0.483l0,0.962c0,0.64,0,1.276-0.001,1.908
						c-0.001,1.265-0.002,2.514-0.003,3.746c-0.004,2.461-0.007,4.849-0.01,7.135l-0.27-0.27c9.648,0.052,17.955,0.096,23.909,0.128
						c2.936,0.032,5.29,0.057,6.965,0.075c0.782,0.014,1.405,0.025,1.878,0.034C452.613,50.645,452.842,50.656,452.853,50.667
						c0.011,0.011-0.197,0.022-0.607,0.033c-0.459,0.009-1.063,0.02-1.822,0.034c-1.66,0.018-3.993,0.043-6.903,0.074
						c-5.999,0.032-14.369,0.076-24.091,0.128l-0.27,0.001l0-0.271c-0.003-2.287-0.007-4.674-0.01-7.135
						c-0.001-1.231-0.002-2.481-0.003-3.746c0-0.632,0-1.269-0.001-1.908l0-0.962v-0.483v-0.242V36.07v-0.06v-0.03v-0.015v-0.008
						v-0.004c-0.062,0.06,0.538-0.538,0.286-0.285c12.983,0.031,24.762,0.059,33.42,0.08l0.206,0.001l-0.002,0.203
						c-0.046,4.533-0.083,8.219-0.11,10.829c-0.021,1.223-0.038,2.192-0.051,2.905C452.881,50.343,452.867,50.681,452.853,50.667z"
						/>
				</g>
			</g>
		</g>
	</g>
	<g>
		<g>
			<g>
				<g>
					<g>
						<path style="fill:#EBEBEB;" d="M363.759,383.678c-5.219-2.693-11.364-3.043-17.157-2.085
							c-3.112,0.515-6.357,1.446-8.476,3.784c-2.118,2.338-2.519,6.452-0.087,8.461c1.448,1.196,3.467,1.377,5.344,1.356
							c4.535-0.053,9.568-0.852,13.191,1.877c2.067,1.557,3.443,4.145,5.915,4.911c2.418,0.749,5.147-0.678,6.429-2.86
							c1.282-2.182,1.325-4.911,0.727-7.37C369.645,391.752,369.016,386.39,363.759,383.678z"/>
					</g>
				</g>
			</g>
			<g>
				<g>
					<g>
						<path style="fill:#EBEBEB;" d="M375.715,360.597c-3.191,4.558-9.393,3.049-12.269,0.267
							c-2.876-2.782-4.091-6.814-5.198-10.659c-2.528-8.785-5.077-18.001-3.197-26.947c0.562-2.674,1.562-5.342,3.442-7.326
							c1.879-1.984,4.769-3.165,7.412-2.466c3.127,0.826,5.071,3.889,6.475,6.803c4.129,8.564,6.315,18.059,6.348,27.566
							C378.744,352.275,378.22,356.931,375.715,360.597"/>
					</g>
				</g>
			</g>
			<g>
				<g>
					<g>
						<path style="fill:#EBEBEB;" d="M384.478,367.137c-3.465-4.112-4.122-10.11-2.581-15.261c1.542-5.152,5.025-9.534,9.039-13.112
							c4.707-4.195,10.239-7.459,16.186-9.55c2.341-0.823,4.81-1.472,7.279-1.237c2.47,0.236,4.957,1.499,6.109,3.696
							c1.703,3.249,0.07,7.189-1.696,10.404c-3.112,5.664-6.67,11.082-10.631,16.189c-3.186,4.108-6.837,8.161-11.693,10.017
							c-4.856,1.857-9.901,1.638-12.475-1.73"/>
					</g>
				</g>
			</g>
			<g>
				<g>
					<g>
						<g>
							<path style="fill:#E0E0E0;" d="M375.931,429.349c-0.06,0.004-0.157-0.735-0.289-2.071c-0.147-1.507-0.331-3.4-0.55-5.652
								c-0.263-2.378-0.611-5.208-1.271-8.29c-0.659-3.074-1.689-6.406-3.013-9.784c-1.371-3.359-3.043-6.412-4.996-8.853
								c-1.94-2.453-4.196-4.227-6.317-5.251c-2.114-1.044-4.009-1.468-5.32-1.656c-1.321-0.136-2.061-0.24-2.062-0.298
								c-0.001-0.059,0.741-0.069,2.098-0.032c1.345,0.09,3.319,0.43,5.547,1.443c2.235,0.991,4.628,2.794,6.663,5.297
								c2.051,2.493,3.784,5.613,5.179,9.031c1.347,3.438,2.362,6.804,2.992,9.945c0.627,3.135,0.914,5.997,1.102,8.395
								c0.179,2.4,0.247,4.344,0.28,5.687C376.005,428.601,375.99,429.345,375.931,429.349z"/>
						</g>
					</g>
				</g>
			</g>
			<g>
				<g>
					<g>
						<g>
							<path style="fill:#E0E0E0;" d="M375.542,425c-0.029-0.002-0.048-0.332-0.056-0.961c0.002-0.722,0.004-1.632,0.007-2.748
								c0.007-2.385,0.005-5.836-0.122-10.097c-0.211-8.523-0.945-17.696-2.362-30.629c-1.342-12.16-3.144-26.313-5.045-35.514
								c-0.408-2.093-0.818-3.976-1.205-5.625c-0.369-1.653-0.683-3.078-0.987-4.23c-0.261-1.085-0.473-1.969-0.642-2.671
								c-0.138-0.614-0.196-0.94-0.168-0.948c0.028-0.008,0.143,0.302,0.334,0.901c0.209,0.692,0.473,1.563,0.798,2.633
								c0.354,1.142,0.717,2.558,1.131,4.204c0.432,1.642,0.884,3.521,1.331,5.61c1.881,8.337,3.873,19.99,5.304,32.953
								c1.42,12.959,2.06,24.759,2.117,33.304c0.051,4.272-0.04,7.731-0.149,10.117c-0.068,1.116-0.124,2.025-0.168,2.746
								C375.611,424.673,375.571,425.001,375.542,425z"/>
						</g>
					</g>
				</g>
			</g>
			<g>
				<g>
					<g>
						<g>
							<path style="fill:#E0E0E0;" d="M375.485,402.241c-0.059-0.002-0.049-1.022,0.02-2.871c0.106-1.845,0.359-4.511,0.879-7.777
								c0.551-3.258,1.32-7.127,2.529-11.331c0.524-1.922,1.755-6.527,4.738-13.408c3.93-9.323,9.27-16.946,13.915-21.667
								c1.089-1.253,2.303-2.157,3.274-3.043c0.502-0.425,0.946-0.848,1.398-1.184c0.455-0.313,0.878-0.605,1.27-0.875
								c1.529-1.046,2.385-1.597,2.417-1.547c0.137,0.186-3.424,2.282-7.922,7.067c-4.479,4.774-9.669,12.344-13.568,21.589
								c-2.174,5.014-3.69,9.487-4.765,13.285c-1.243,4.163-2.068,7.993-2.691,11.219c-0.593,3.233-0.936,5.873-1.143,7.701
								C375.666,401.229,375.543,402.243,375.485,402.241z"/>
						</g>
					</g>
				</g>
			</g>
		</g>
		<g>
			<g>
				<g>
					<polygon style="fill:#E0E0E0;" points="397.482,442.388 395.202,473.63 355.065,473.63 352.784,442.388 					"/>
				</g>
			</g>
		</g>
		<g>
			<g>
				<g>
					<rect x="347.995" y="430.073" style="fill:#E0E0E0;" width="53.364" height="12.315"/>
				</g>
			</g>
		</g>
		<g>
			<g>
				<g>
					<polygon style="fill:#EBEBEB;" points="401.359,472.435 401.359,475.848 398.852,475.848 348.877,475.848 348.877,472.435 
											"/>
				</g>
			</g>
		</g>
		<g>
			<g>
				<g>
					<polygon style="fill:#E0E0E0;" points="396.394,481.856 398.852,475.848 350.789,475.848 353.656,481.856 					"/>
				</g>
			</g>
		</g>
		<g>
			<g>
				<g>
					<g>
						<path style="fill:#F5F5F5;" d="M353.53,452.598c-0.009,0.008,0.055,0.105,0.187,0.287c0.159,0.211,0.356,0.473,0.6,0.796
							c0.57,0.729,1.353,1.732,2.338,2.992l0.104,0.133l0.101-0.139c1.47-2.033,3.433-4.748,5.744-7.945h-0.33
							c1.709,2.419,3.612,5.115,5.655,8.008l0.177,0.251l0.198-0.236c2.087-2.483,4.354-5.18,6.707-7.98l-0.387-0.005
							c0.116,0.146,0.242,0.305,0.369,0.464c2.08,2.608,4.093,5.132,5.997,7.519l0.2,0.251l0.185-0.261
							c2.036-2.881,3.938-5.572,5.658-8.006l-0.329,0.016c2.789,3.177,5.153,5.872,6.969,7.94l0.124,0.141l0.095-0.159
							c0.919-1.543,1.651-2.774,2.182-3.666c0.228-0.398,0.413-0.72,0.56-0.976c0.123-0.223,0.182-0.341,0.171-0.348
							c-0.011-0.007-0.09,0.099-0.234,0.309c-0.163,0.247-0.367,0.556-0.619,0.939c-0.557,0.876-1.326,2.084-2.291,3.599
							l0.218-0.018c-1.786-2.093-4.113-4.82-6.857-8.036l-0.173-0.203l-0.156,0.219c-1.735,2.423-3.655,5.102-5.709,7.97l0.384-0.01
							c-1.899-2.391-3.908-4.918-5.983-7.53c-0.126-0.159-0.252-0.317-0.369-0.464l-0.191-0.239l-0.196,0.235
							c-2.347,2.805-4.607,5.507-6.688,7.996l0.375,0.015c-2.064-2.879-3.986-5.56-5.712-7.968l-0.168-0.234l-0.163,0.234
							c-2.263,3.232-4.184,5.976-5.623,8.031l0.204-0.006c-1.025-1.229-1.839-2.205-2.432-2.916
							c-0.264-0.306-0.478-0.554-0.651-0.754C353.621,452.674,353.539,452.591,353.53,452.598z"/>
					</g>
				</g>
			</g>
		</g>
		<g>
			<g>
				<g>
					<g>
						<path style="fill:#F5F5F5;" d="M352.226,442.181c0,0.138,10.057,0.25,22.46,0.25c12.407,0,22.462-0.112,22.462-0.25
							c0-0.138-10.055-0.25-22.462-0.25C362.283,441.932,352.226,442.043,352.226,442.181z"/>
					</g>
				</g>
			</g>
		</g>
		<g>
			<g>
				<g>
					<g>
						<path style="fill:#F5F5F5;" d="M350.198,476.185c0,0.138,10.93,0.25,24.41,0.25c13.484,0,24.412-0.112,24.412-0.25
							c0-0.138-10.927-0.25-24.412-0.25C361.128,475.935,350.198,476.047,350.198,476.185z"/>
					</g>
				</g>
			</g>
		</g>
	</g>
	<g>
		<g>
			<rect x="28.312" y="36.143" style="fill:#EBEBEB;" width="166.443" height="299.003"/>
		</g>
		<g>
			<rect x="34.963" y="44.814" style="fill:#FAFAFA;" width="151.426" height="281.425"/>
		</g>
		<g>
			<polygon style="fill:#E0E0E0;" points="201.795,337.841 194.755,335.146 194.755,31.072 201.795,31.072 			"/>
		</g>
		<g>
			<path style="fill:#F5F5F5;" d="M72.085,226.599c13.109-12.184,26.217-24.369,39.326-36.553
				c4.983-4.632,11.497-9.622,17.906-7.339c3.083,1.098,5.402,3.73,8.423,4.988c6.038,2.516,12.934-1.116,17.577-5.724
				c4.642-4.608,8.306-10.37,13.93-13.711c5.624-3.34,14.362-2.916,17.142,3.005v39.783l-57.152,24.469L72.085,226.599z"/>
		</g>
		<g>
			<path style="fill:#E0E0E0;" d="M34.963,203.734c14.492-5.902,28.953-0.885,39.325,10.83c2.184,2.466,4.171,5.315,7.171,6.675
				c4.062,1.842,8.755,0.464,13.187-0.039c12.114-1.373,24.765,4.76,31.192,15.119l-48.383,23.798l-42.493-0.309V203.734z"/>
		</g>
		<g>
			<path style="fill:#EBEBEB;" d="M186.389,203.931c-9.545-4.609-17.947,0.967-26.752,6.867c-8.805,5.9-16.988,13.467-27.317,15.843
				c-6.902,1.588-14.297,0.707-20.968,3.083c-13.593,4.841-21.452,22.101-35.858,22.925c-7.822,0.447-14.838-4.295-21.818-7.852
				c-6.981-3.557-12.487-6.935-18.712-2.177v83.617h151.426V203.931z"/>
		</g>
		<g>
			<rect x="34.963" y="125.772" style="fill:#E0E0E0;" width="154.715" height="2.997"/>
		</g>
		<g>
			<rect x="34.963" y="192.79" style="fill:#E0E0E0;" width="154.715" height="2.996"/>
		</g>
		<g>
			<rect x="34.963" y="259.808" style="fill:#E0E0E0;" width="154.715" height="2.996"/>
		</g>
		<g>
			
				<rect x="7.202" y="226.919" transform="matrix(6.123234e-17 -1 1 6.123234e-17 -120.0679 341.4201)" style="fill:#E0E0E0;" width="206.948" height="7.651"/>
		</g>
		<g>
			<rect x="64.121" y="44.814" style="fill:#E0E0E0;" width="3.466" height="82.456"/>
		</g>
		<g>
			<rect x="94.014" y="44.814" style="fill:#E0E0E0;" width="3.466" height="82.456"/>
		</g>
		<g>
			<rect x="123.907" y="44.814" style="fill:#E0E0E0;" width="3.466" height="82.456"/>
		</g>
		<g>
			<rect x="153.8" y="44.814" style="fill:#E0E0E0;" width="3.466" height="82.456"/>
		</g>
		<g>
			<rect x="21.272" y="31.072" style="fill:#E0E0E0;" width="7.04" height="305.924"/>
		</g>
		<g>
			<rect x="21.272" y="27.985" style="fill:#E0E0E0;" width="180.522" height="8.158"/>
		</g>
		<g>
			<rect x="16.278" y="338.847" style="fill:#E0E0E0;" width="190.282" height="7.601"/>
		</g>
		<g>
			<polygon style="fill:#EBEBEB;" points="194.755,335.146 206.56,338.847 16.278,338.847 28.312,335.146 			"/>
		</g>
	</g>
</g>
<g id="Background_Simple" style="display:none;">
	<g style="display:inline;">
		<path style="fill:#F5F5F5;" d="M396.092,138.568l-2.065-3.403c-17.41-28.69-48.887-45.984-82.074-43.886
			c-4.266,0.27-8.514,0.847-12.705,1.744c-30.174,6.459-56.429,29.277-67.312,58.5c-6.4,17.187-8.188,36.975-20.334,50.617
			c-15.807,17.754-42.643,18.312-66.238,17.576c-23.594-0.736-50.449-0.108-66.179,17.716
			c-9.852,11.163-12.982,27.038-12.188,41.987C69.1,319,96.68,354.39,131.755,371.981s76.371,19.166,114.758,11.428
			c53.776-10.84,104.916-40.61,135.655-86.59C412.907,250.839,420.686,188.195,396.092,138.568z"/>
	</g>
</g>
<g id="Switches">
	<g>
		<g>
			<g>
				<path style="fill:#F5F5F5;" d="M328.871,295.047h-97.97c-1.611,0-2.918-1.306-2.918-2.918v-97.97
					c0-1.612,1.306-2.918,2.918-2.918h97.97c1.612,0,2.918,1.306,2.918,2.918v97.97C331.789,293.74,330.483,295.047,328.871,295.047
					z"/>
			</g>
			<g>
				<g>
					<path style="fill:#263238;" d="M328.871,295.047c-0.006-0.03,0.373,0.034,1.026-0.217c0.618-0.231,1.607-0.928,1.808-2.295
						c0.047-2.714-0.016-6.757-0.017-11.943c-0.02-10.391-0.048-25.405-0.083-43.956c-0.01-9.28-0.02-19.444-0.032-30.354
						c-0.002-2.728-0.005-5.502-0.007-8.321c-0.017-1.393,0.035-2.868-0.04-4.224c-0.186-1.328-1.469-2.382-2.86-2.266
						c-5.812,0.004-11.794,0.007-17.928,0.011c-24.538,0.006-51.513,0.013-79.827,0.021c-0.809-0.003-1.606,0.379-2.099,1.019
						c-0.247,0.317-0.423,0.688-0.508,1.08c-0.091,0.38-0.051,0.814-0.06,1.262c0,1.759,0,3.514,0,5.262
						c0,3.496-0.001,6.97-0.001,10.418c-0.001,6.896-0.003,13.691-0.004,20.368c-0.005,13.353-0.01,26.234-0.015,38.504
						c-0.004,6.135-0.007,12.117-0.011,17.93c-0.001,1.453-0.002,2.896-0.003,4.327c-0.033,0.727,0.055,1.361,0.435,1.925
						c0.357,0.551,0.92,0.96,1.548,1.13c0.611,0.17,1.344,0.071,2.038,0.099c0.699,0,1.396,0.001,2.089,0.002
						c1.387,0.001,2.763,0.002,4.127,0.003c10.911,0.011,21.075,0.022,30.355,0.032c18.551,0.035,33.564,0.063,43.954,0.083
						c5.181,0.021,9.206,0.038,11.95,0.049c1.358,0.011,2.396,0.02,3.108,0.026C328.513,295.029,328.871,295.047,328.871,295.047
						s-0.359,0.018-1.059,0.027c-0.712,0.006-1.75,0.014-3.108,0.026c-2.744,0.011-6.769,0.028-11.95,0.049
						c-10.389,0.02-25.403,0.048-43.954,0.083c-9.28,0.01-19.444,0.02-30.355,0.032c-1.364,0.001-2.74,0.002-4.127,0.004
						c-0.693,0.001-1.39,0.001-2.089,0.002l-1.051,0.001c-0.337,0.009-0.746-0.008-1.104-0.113
						c-0.733-0.197-1.389-0.674-1.806-1.315c-0.444-0.624-0.549-1.475-0.511-2.17c-0.001-1.432-0.002-2.874-0.003-4.327
						c-0.004-5.813-0.007-11.795-0.011-17.93c-0.005-12.271-0.01-25.151-0.015-38.504c-0.001-6.677-0.003-13.472-0.004-20.368
						c0-3.448-0.001-6.922-0.001-10.418c0-1.748,0-3.502,0-5.262c0.011-0.429-0.037-0.885,0.071-1.371
						c0.102-0.469,0.313-0.914,0.608-1.293c0.587-0.763,1.545-1.222,2.508-1.218c28.314,0.007,55.289,0.014,79.827,0.02
						c6.134,0.004,12.116,0.007,17.928,0.011c0.75-0.039,1.571,0.195,2.167,0.691c0.608,0.485,1.022,1.2,1.139,1.963
						c0.083,1.498,0.021,2.87,0.039,4.295c-0.002,2.819-0.005,5.594-0.007,8.321c-0.011,10.91-0.022,21.074-0.032,30.354
						c-0.035,18.551-0.063,33.566-0.083,43.956c-0.03,5.192,0.001,9.214-0.082,11.957c-0.227,1.415-1.258,2.111-1.893,2.33
						c-0.331,0.126-0.601,0.152-0.777,0.168C328.961,295.051,328.871,295.047,328.871,295.047z"/>
				</g>
			</g>
		</g>
		<g>
			<path style="fill:#263238;" d="M274.243,208.136c0-1.604,1.24-2.791,2.923-2.791c1.682,0,2.922,1.178,2.922,2.791
				c0,1.612-1.24,2.791-2.922,2.791C275.483,210.927,274.243,209.74,274.243,208.136z M279.072,208.136
				c0-1.108-0.814-1.907-1.906-1.907c-1.093,0-1.907,0.799-1.907,1.907c0,1.108,0.815,1.907,1.907,1.907
				C278.258,210.043,279.072,209.245,279.072,208.136z"/>
			<path style="fill:#263238;" d="M285.978,205.423v5.426h-0.829l-2.992-3.674v3.674h-1v-5.426h0.829l2.992,3.674v-3.674H285.978z"
				/>
		</g>
		<g>
			<path style="fill:#263238;" d="M273.553,275.683c0-1.604,1.24-2.791,2.923-2.791c1.682,0,2.922,1.179,2.922,2.791
				s-1.24,2.79-2.922,2.79C274.794,278.473,273.553,277.287,273.553,275.683z M278.382,275.683c0-1.108-0.813-1.907-1.906-1.907
				s-1.907,0.799-1.907,1.907s0.814,1.907,1.907,1.907S278.382,276.791,278.382,275.683z"/>
			<path style="fill:#263238;" d="M281.475,273.815v1.651h2.62v0.853h-2.62v2.077h-1.008v-5.426h3.961v0.845H281.475z"/>
			<path style="fill:#263238;" d="M286.413,273.815v1.651h2.62v0.853h-2.62v2.077h-1.008v-5.426h3.961v0.845H286.413z"/>
		</g>
		<g>
			<g>
				<path style="fill:#E0E0E0;" d="M292.483,266.689h-22.768c-1.218,0-2.205-0.987-2.205-2.204v-43.394
					c0-1.218,0.987-2.204,2.205-2.204h22.768c1.217,0,2.204,0.987,2.204,2.204v43.394
					C294.688,265.702,293.701,266.689,292.483,266.689z"/>
			</g>
			<g>
				<g>
					<path style="fill:#263238;" d="M292.483,266.689c-0.022-0.051,0.573,0.07,1.342-0.524c0.36-0.298,0.732-0.817,0.776-1.511
						c-0.004-0.715-0.009-1.533-0.015-2.451c-0.02-3.729-0.048-9.072-0.083-15.663c-0.016-6.622-0.035-14.493-0.056-23.23
						c-0.001-0.546-0.002-1.096-0.002-1.649c0.007-0.575,0.021-1.064-0.241-1.507c-0.238-0.438-0.652-0.781-1.132-0.929
						c-0.46-0.151-1.051-0.066-1.623-0.089c-2.288,0.002-4.625,0.004-7.003,0.006c-4.758,0.002-9.683,0.004-14.727,0.005
						c-0.56-0.003-1.105,0.25-1.469,0.669c-0.379,0.43-0.516,0.955-0.479,1.571c0,1.246-0.001,2.484-0.001,3.712
						c-0.001,2.457-0.003,4.878-0.004,7.258c-0.005,4.758-0.01,9.347-0.015,13.72c-0.009,4.371-0.017,8.525-0.024,12.415
						c-0.005,1.944-0.01,3.821-0.015,5.626c-0.09,0.885,0.281,1.684,0.982,2.096c0.342,0.205,0.725,0.296,1.13,0.285
						c0.423,0.001,0.841,0.003,1.255,0.004c6.591,0.035,11.934,0.063,15.662,0.083c1.826,0.021,3.254,0.037,4.258,0.049
						c0.466,0.011,0.832,0.02,1.107,0.026C292.355,266.672,292.483,266.68,292.483,266.689s-0.128,0.018-0.377,0.027
						c-0.275,0.007-0.642,0.015-1.107,0.026c-1.004,0.012-2.432,0.028-4.258,0.049c-3.728,0.02-9.072,0.048-15.662,0.083
						c-0.413,0.001-0.832,0.003-1.255,0.004c-0.439,0.016-0.926-0.089-1.326-0.33c-0.405-0.237-0.747-0.599-0.951-1.036
						c-0.224-0.423-0.251-0.964-0.237-1.392c-0.005-1.805-0.01-3.683-0.015-5.626c-0.008-3.89-0.016-8.044-0.024-12.415
						c-0.005-4.373-0.01-8.963-0.015-13.72c-0.001-2.379-0.003-4.801-0.004-7.258c0-1.229-0.001-2.466-0.001-3.712
						c-0.048-0.622,0.128-1.404,0.607-1.913c0.458-0.53,1.155-0.853,1.861-0.848c5.045,0.002,9.97,0.003,14.727,0.005
						c2.378,0.002,4.715,0.004,7.003,0.006l0.856,0.001c0.276-0.006,0.623,0.015,0.915,0.114c0.603,0.188,1.117,0.618,1.413,1.165
						c0.327,0.545,0.307,1.222,0.297,1.742c-0.001,0.553-0.002,1.103-0.002,1.649c-0.021,8.737-0.04,16.608-0.056,23.23
						c-0.035,6.591-0.063,11.935-0.083,15.663c-0.012,0.927-0.007,1.74-0.033,2.464c-0.065,0.744-0.478,1.282-0.865,1.581
						C293.06,266.841,292.459,266.671,292.483,266.689z"/>
				</g>
			</g>
		</g>
		<g>
			<g>
				<path style="fill:#F5F5F5;" d="M291.768,263.895H270.43c-1.613,0-2.92-1.307-2.92-2.92v-18.187h27.177v18.187
					C294.688,262.588,293.38,263.895,291.768,263.895z"/>
			</g>
			<g>
				<g>
					<path style="fill:#263238;" d="M291.768,263.895c-0.018-0.058,0.615,0.054,1.512-0.505c0.434-0.279,0.904-0.767,1.145-1.478
						c0.254-0.702,0.107-1.612,0.133-2.605c-0.023-4.027-0.055-9.707-0.093-16.519l0.223,0.223
						c-7.023,0.011-15.35,0.024-24.255,0.038c-1.001,0-1.995,0-2.922-0.001l0.26-0.26c-0.009,6.16-0.017,11.995-0.025,17.29
						c0.01,0.675-0.062,1.307,0.173,1.852c0.206,0.556,0.602,1.03,1.093,1.333c0.495,0.318,1.054,0.431,1.646,0.413
						c0.606,0.002,1.202,0.005,1.788,0.007c2.34,0.011,4.519,0.022,6.51,0.032c3.939,0.034,7.13,0.061,9.386,0.081
						c1.071,0.02,1.919,0.036,2.542,0.047c0.265,0.01,0.481,0.018,0.66,0.025C291.692,263.878,291.768,263.886,291.768,263.895
						c0,0.009-0.076,0.017-0.225,0.026c-0.178,0.007-0.395,0.015-0.66,0.025c-0.623,0.012-1.471,0.027-2.542,0.047
						c-2.255,0.019-5.447,0.047-9.386,0.081c-1.991,0.01-4.169,0.02-6.51,0.032c-0.586,0.002-1.182,0.005-1.788,0.007
						c-0.614,0.027-1.319-0.102-1.883-0.468c-0.575-0.35-1.04-0.899-1.286-1.55c-0.126-0.323-0.2-0.672-0.207-1.023
						c-0.002-0.329-0.005-0.659-0.007-0.992c-0.007-5.296-0.016-11.131-0.025-17.29l0-0.26l0.26,0c0.927,0,1.921,0,2.922-0.001
						c8.905,0.014,17.232,0.027,24.255,0.038l0.224,0l-0.001,0.223c-0.038,6.811-0.07,12.491-0.093,16.519
						c-0.005,0.496-0.01,0.967-0.015,1.412c0.007,0.44-0.045,0.889-0.189,1.259c-0.279,0.755-0.796,1.254-1.261,1.527
						c-0.47,0.28-0.889,0.366-1.164,0.392C291.911,263.923,291.768,263.895,291.768,263.895z"/>
				</g>
			</g>
		</g>
		<g>
			<circle style="fill:#FF725E;" cx="281.099" cy="226.245" r="1.646"/>
		</g>
		<g>
			<g>
				<g>
					<path style="fill:#E0E0E0;" d="M316.234,242.788c0,1.832-1.485,3.317-3.317,3.317c-1.832,0-3.317-1.485-3.317-3.317
						c0-1.832,1.485-3.317,3.317-3.317C314.749,239.471,316.234,240.956,316.234,242.788z"/>
				</g>
				<g>
					<g>
						<path style="fill:#263238;" d="M316.234,242.788c-0.046,0.001-0.052-0.295-0.202-0.785c-0.148-0.481-0.491-1.178-1.22-1.705
							c-0.704-0.53-1.847-0.816-2.943-0.4c-1.087,0.383-2.02,1.541-2.008,2.889c-0.012,1.349,0.921,2.507,2.008,2.89
							c1.096,0.416,2.239,0.13,2.944-0.4c0.729-0.527,1.072-1.224,1.22-1.705C316.181,243.083,316.188,242.786,316.234,242.788
							c0.025-0.002,0.091,0.297-0.005,0.835c-0.095,0.526-0.41,1.318-1.193,1.948c-0.756,0.631-2.051,1.013-3.331,0.558
							c-1.268-0.413-2.381-1.76-2.366-3.342c-0.015-1.581,1.098-2.927,2.366-3.34c1.28-0.455,2.574-0.073,3.33,0.558
							c0.783,0.63,1.098,1.423,1.193,1.948C316.324,242.491,316.259,242.79,316.234,242.788z"/>
					</g>
				</g>
			</g>
			<g>
				<g>
					<path style="fill:#263238;" d="M315.355,240.66c0.101,0.103-0.852,1.201-2.128,2.453c-1.276,1.253-2.392,2.184-2.493,2.082
						c-0.101-0.103,0.852-1.201,2.128-2.453C314.138,241.49,315.254,240.558,315.355,240.66z"/>
				</g>
			</g>
			<g>
				<g>
					<path style="fill:#263238;" d="M315.112,245.126c-0.112,0.095-1.138-0.937-2.415-2.187c-1.274-1.254-2.325-2.26-2.232-2.374
						c0.088-0.109,1.303,0.729,2.597,2.002C314.358,243.836,315.22,245.036,315.112,245.126z"/>
				</g>
			</g>
		</g>
		<g>
			<g>
				<g>
					<path style="fill:#E0E0E0;" d="M253.588,242.788c0,1.832-1.485,3.317-3.317,3.317c-1.832,0-3.317-1.485-3.317-3.317
						c0-1.832,1.485-3.317,3.317-3.317C252.103,239.471,253.588,240.956,253.588,242.788z"/>
				</g>
				<g>
					<g>
						<path style="fill:#263238;" d="M253.588,242.788c-0.046,0.001-0.053-0.295-0.202-0.785c-0.148-0.481-0.491-1.178-1.22-1.705
							c-0.704-0.53-1.847-0.816-2.943-0.4c-1.087,0.383-2.02,1.541-2.008,2.889c-0.012,1.349,0.921,2.507,2.008,2.89
							c1.096,0.416,2.239,0.13,2.944-0.4c0.729-0.527,1.072-1.224,1.22-1.705C253.535,243.083,253.542,242.786,253.588,242.788
							c0.025-0.002,0.09,0.297-0.005,0.835c-0.095,0.526-0.41,1.318-1.193,1.948c-0.756,0.631-2.051,1.013-3.331,0.558
							c-1.268-0.413-2.381-1.76-2.366-3.342c-0.015-1.581,1.098-2.927,2.366-3.34c1.28-0.455,2.574-0.073,3.33,0.558
							c0.783,0.63,1.098,1.423,1.193,1.948C253.678,242.491,253.613,242.79,253.588,242.788z"/>
					</g>
				</g>
			</g>
			<g>
				<g>
					<path style="fill:#263238;" d="M252.709,240.66c0.101,0.103-0.852,1.201-2.128,2.453c-1.276,1.253-2.392,2.184-2.493,2.082
						c-0.101-0.103,0.852-1.201,2.128-2.453C251.492,241.49,252.608,240.558,252.709,240.66z"/>
				</g>
			</g>
			<g>
				<g>
					<path style="fill:#263238;" d="M252.466,245.126c-0.112,0.095-1.138-0.937-2.415-2.187c-1.274-1.254-2.325-2.26-2.232-2.374
						c0.088-0.109,1.303,0.729,2.597,2.002C251.712,243.836,252.574,245.036,252.466,245.126z"/>
				</g>
			</g>
		</g>
	</g>
	<g>
		<g>
			<g>
				<path style="fill:#F5F5F5;" d="M274.495,354.778h-45.038c-1.085,0-1.964-0.879-1.964-1.964v-45.038
					c0-1.085,0.879-1.964,1.964-1.964h45.038c1.085,0,1.964,0.879,1.964,1.964v45.038
					C276.458,353.899,275.579,354.778,274.495,354.778z"/>
			</g>
			<g>
				<g>
					<path style="fill:#263238;" d="M274.495,354.778c-0.001-0.016,0.171-0.005,0.485-0.09c0.305-0.083,0.777-0.304,1.118-0.835
						c0.396-0.526,0.279-1.348,0.283-2.282c-0.007-0.941-0.015-2.022-0.024-3.237c-0.02-4.893-0.048-11.935-0.083-20.626
						c-0.01-4.356-0.02-9.125-0.032-14.243c-0.002-1.28-0.004-2.582-0.007-3.905c-0.006-0.65,0.009-1.353-0.014-1.975
						c-0.064-0.59-0.454-1.144-1.01-1.387c-0.283-0.132-0.56-0.162-0.906-0.155l-1.034,0.001c-0.692,0.001-1.388,0.002-2.089,0.003
						c-1.402,0.002-2.824,0.003-4.263,0.005c-11.516,0.006-24.172,0.013-37.458,0.02c-0.729-0.012-1.416,0.499-1.628,1.188
						c-0.053,0.172-0.077,0.348-0.08,0.531l0,0.618l0,1.233c0,1.641-0.001,3.271-0.001,4.888c-0.001,3.236-0.003,6.424-0.004,9.558
						c-0.005,6.265-0.01,12.309-0.015,18.068c-0.004,2.879-0.008,5.686-0.011,8.414c-0.001,0.682-0.002,1.359-0.003,2.031
						c-0.047,0.644,0.196,1.218,0.67,1.587c0.231,0.18,0.506,0.304,0.794,0.346c0.272,0.041,0.625,0.019,0.944,0.026
						c0.651,0.001,1.296,0.002,1.936,0.003c5.119,0.011,9.888,0.022,14.244,0.032c8.691,0.035,15.732,0.063,20.625,0.083
						c2.417,0.021,4.302,0.037,5.607,0.049c0.624,0.011,1.108,0.02,1.458,0.026C274.326,354.76,274.495,354.778,274.495,354.778
						s-0.168,0.018-0.497,0.027c-0.35,0.006-0.835,0.015-1.458,0.026c-1.305,0.011-3.191,0.028-5.607,0.049
						c-4.893,0.02-11.933,0.048-20.625,0.083c-4.356,0.01-9.125,0.02-14.244,0.032c-0.64,0.001-1.286,0.002-1.936,0.003
						c-0.331-0.008-0.635,0.023-1.013-0.028c-0.362-0.053-0.708-0.206-0.999-0.432c-0.595-0.435-0.906-1.24-0.848-1.938
						c-0.001-0.672-0.002-1.349-0.003-2.031c-0.003-2.728-0.007-5.535-0.011-8.414c-0.005-5.758-0.01-11.802-0.015-18.068
						c-0.001-3.133-0.003-6.322-0.004-9.558c0-1.618-0.001-3.248-0.001-4.888l0-1.233v-0.618c0.002-0.229,0.035-0.465,0.104-0.688
						c0.275-0.901,1.175-1.566,2.124-1.551c13.286,0.007,25.942,0.014,37.458,0.02c1.439,0.002,2.861,0.003,4.263,0.005
						c0.701,0.001,1.398,0.002,2.089,0.003l1.034,0.001c0.337-0.01,0.76,0.032,1.096,0.199c0.701,0.31,1.191,1.008,1.269,1.755
						c0.026,0.72,0.005,1.352,0.01,2.024c-0.002,1.323-0.004,2.625-0.007,3.905c-0.012,5.118-0.022,9.887-0.032,14.243
						c-0.035,8.691-0.063,15.733-0.083,20.626c-0.009,1.214-0.017,2.295-0.024,3.237c-0.006,0.468-0.011,0.901-0.015,1.299
						c-0.014,0.41-0.153,0.767-0.335,1.04c-0.375,0.55-0.876,0.761-1.193,0.83C274.666,354.81,274.495,354.778,274.495,354.778z"/>
				</g>
			</g>
		</g>
		<g>
			<g>
				<path style="fill:#263238;" d="M267.341,330.296c-0.081,0.007,0.01-1.274-0.545-3.463c-0.549-2.146-1.98-5.303-5.208-7.744
					c-1.599-1.193-3.613-2.205-5.934-2.611c-2.306-0.391-4.906-0.315-7.38,0.629c-1.245,0.434-2.446,1.089-3.549,1.915
					c-1.116,0.811-2.129,1.817-2.964,2.982c-1.726,2.297-2.698,5.248-2.726,8.29c0.027,3.043,0.999,5.995,2.725,8.293
					c0.835,1.166,1.848,2.172,2.964,2.983c1.103,0.827,2.304,1.482,3.55,1.916c2.474,0.944,5.075,1.02,7.381,0.628
					c2.321-0.406,4.335-1.419,5.934-2.611c3.228-2.442,4.658-5.598,5.207-7.744C267.351,331.569,267.26,330.289,267.341,330.296
					c0.009,0,0.014,0.078,0.015,0.232c-0.002,0.185-0.005,0.409-0.008,0.682c0.001,0.301-0.015,0.672-0.087,1.106
					c-0.057,0.436-0.112,0.941-0.268,1.492c-0.234,1.119-0.736,2.445-1.545,3.856c-0.816,1.405-2.004,2.877-3.635,4.132
					c-1.626,1.243-3.688,2.305-6.078,2.743c-2.373,0.423-5.058,0.361-7.624-0.602c-1.291-0.443-2.537-1.116-3.682-1.967
					c-1.158-0.836-2.211-1.875-3.079-3.081c-1.793-2.376-2.808-5.44-2.835-8.595c0.027-3.153,1.042-6.216,2.836-8.592
					c0.869-1.206,1.921-2.245,3.079-3.08c1.145-0.852,2.391-1.524,3.682-1.967c2.565-0.963,5.25-1.025,7.623-0.602
					c2.389,0.437,4.452,1.5,6.078,2.743c1.631,1.254,2.82,2.727,3.636,4.131c0.809,1.411,1.312,2.737,1.546,3.856
					c0.156,0.551,0.21,1.057,0.268,1.493c0.072,0.434,0.088,0.805,0.087,1.106c0.003,0.273,0.006,0.497,0.008,0.682
					C267.355,330.217,267.35,330.296,267.341,330.296z"/>
			</g>
		</g>
	</g>
	<g>
		<g>
			<g>
				<path style="fill:#F5F5F5;" d="M330.315,354.778h-45.038c-1.085,0-1.964-0.879-1.964-1.964v-45.038
					c0-1.085,0.879-1.964,1.964-1.964h45.038c1.085,0,1.964,0.879,1.964,1.964v45.038
					C332.279,353.899,331.4,354.778,330.315,354.778z"/>
			</g>
			<g>
				<g>
					<path style="fill:#263238;" d="M330.315,354.778c-0.001-0.016,0.171-0.005,0.485-0.09c0.305-0.083,0.777-0.304,1.118-0.835
						c0.396-0.526,0.279-1.348,0.283-2.282c-0.007-0.941-0.015-2.022-0.024-3.237c-0.02-4.893-0.048-11.935-0.083-20.626
						c-0.01-4.356-0.02-9.125-0.032-14.243c-0.002-1.28-0.005-2.582-0.007-3.905c-0.006-0.65,0.009-1.353-0.014-1.975
						c-0.064-0.59-0.454-1.144-1.01-1.387c-0.283-0.132-0.56-0.162-0.906-0.155l-1.034,0.001c-0.692,0.001-1.388,0.002-2.089,0.003
						c-1.402,0.002-2.824,0.003-4.263,0.005c-11.516,0.006-24.172,0.013-37.458,0.02c-0.729-0.012-1.416,0.499-1.628,1.188
						c-0.052,0.172-0.077,0.348-0.08,0.531v0.618l0,1.233c0,1.641-0.001,3.271-0.001,4.888c-0.001,3.236-0.003,6.424-0.004,9.558
						c-0.005,6.265-0.01,12.309-0.015,18.068c-0.004,2.879-0.007,5.686-0.011,8.414c-0.001,0.682-0.002,1.359-0.003,2.031
						c-0.047,0.644,0.196,1.218,0.67,1.587c0.231,0.18,0.506,0.304,0.794,0.346c0.272,0.041,0.625,0.019,0.944,0.026
						c0.651,0.001,1.296,0.002,1.936,0.003c5.119,0.011,9.888,0.022,14.244,0.032c8.691,0.035,15.732,0.063,20.625,0.083
						c2.417,0.021,4.302,0.037,5.607,0.049c0.624,0.011,1.108,0.02,1.458,0.026C330.147,354.76,330.315,354.778,330.315,354.778
						s-0.168,0.018-0.497,0.027c-0.35,0.006-0.835,0.015-1.458,0.026c-1.305,0.011-3.191,0.028-5.607,0.049
						c-4.893,0.02-11.934,0.048-20.625,0.083c-4.356,0.01-9.125,0.02-14.244,0.032c-0.64,0.001-1.286,0.002-1.936,0.003
						c-0.331-0.008-0.635,0.023-1.013-0.028c-0.362-0.053-0.708-0.206-0.999-0.432c-0.595-0.435-0.906-1.24-0.848-1.938
						c-0.001-0.672-0.002-1.349-0.003-2.031c-0.003-2.728-0.007-5.535-0.011-8.414c-0.005-5.758-0.01-11.802-0.015-18.068
						c-0.001-3.133-0.003-6.322-0.004-9.558c0-1.618-0.001-3.248-0.001-4.888l0-1.233l0-0.618c0.003-0.229,0.035-0.465,0.104-0.688
						c0.275-0.901,1.175-1.566,2.124-1.551c13.286,0.007,25.942,0.014,37.458,0.02c1.439,0.002,2.86,0.003,4.263,0.005
						c0.701,0.001,1.398,0.002,2.089,0.003l1.034,0.001c0.337-0.01,0.76,0.032,1.096,0.199c0.701,0.31,1.191,1.008,1.269,1.755
						c0.026,0.72,0.005,1.352,0.011,2.024c-0.002,1.323-0.005,2.625-0.007,3.905c-0.011,5.118-0.022,9.887-0.032,14.243
						c-0.035,8.691-0.063,15.733-0.083,20.626c-0.009,1.214-0.017,2.295-0.024,3.237c-0.005,0.468-0.01,0.901-0.015,1.299
						c-0.014,0.41-0.153,0.767-0.335,1.04c-0.375,0.55-0.876,0.761-1.193,0.83C330.487,354.81,330.315,354.778,330.315,354.778z"/>
				</g>
			</g>
		</g>
		<g>
			<g>
				<path style="fill:#F5F5F5;" d="M323.969,349.212h-32.635c-1.211,0-2.192-0.982-2.192-2.192v-32.635
					c0-1.211,0.982-2.192,2.192-2.192h32.635c1.211,0,2.192,0.981,2.192,2.192v32.635
					C326.161,348.23,325.179,349.212,323.969,349.212z"/>
			</g>
			<g>
				<g>
					<path style="fill:#263238;" d="M323.969,349.212c-0.022-0.051,0.564,0.068,1.326-0.515c0.358-0.293,0.725-0.802,0.779-1.486
						c0.011-0.688-0.011-1.51-0.014-2.419c-0.02-3.682-0.048-8.958-0.083-15.464c-0.01-3.267-0.02-6.842-0.032-10.679
						c-0.002-0.96-0.005-1.936-0.007-2.928c-0.005-0.488,0.005-1.012-0.011-1.483c-0.035-0.449-0.224-0.892-0.548-1.218
						c-0.319-0.329-0.757-0.542-1.219-0.587c-0.473-0.018-1.028-0.003-1.544-0.007c-1.051,0.002-2.117,0.003-3.196,0.005
						c-8.635,0.006-18.123,0.013-28.083,0.02c-1.134-0.018-2.079,1.034-1.936,2.2c0,1.23-0.001,2.452-0.001,3.665
						c-0.001,2.426-0.003,4.816-0.004,7.165c-0.005,4.697-0.01,9.228-0.015,13.546c-0.004,2.158-0.007,4.263-0.011,6.308
						c-0.001,0.511-0.002,1.019-0.003,1.522c-0.025,0.486,0.098,0.916,0.354,1.289c0.253,0.369,0.636,0.636,1.055,0.763
						c0.406,0.129,0.897,0.068,1.381,0.085c3.837,0.012,7.412,0.022,10.679,0.032c6.506,0.035,11.781,0.063,15.463,0.083
						c1.802,0.021,3.212,0.037,4.204,0.049c0.459,0.011,0.821,0.019,1.093,0.026C323.842,349.194,323.969,349.203,323.969,349.212
						s-0.126,0.018-0.372,0.027c-0.272,0.006-0.634,0.015-1.093,0.026c-0.992,0.012-2.402,0.028-4.204,0.049
						c-3.681,0.02-8.957,0.048-15.463,0.083c-3.267,0.01-6.842,0.02-10.679,0.032c-0.47-0.018-0.966,0.06-1.505-0.096
						c-0.514-0.153-0.984-0.478-1.296-0.928c-0.316-0.439-0.469-1.023-0.441-1.545c-0.001-0.504-0.002-1.011-0.003-1.522
						c-0.004-2.045-0.007-4.15-0.011-6.308c-0.005-4.318-0.01-8.849-0.015-13.546c-0.001-2.349-0.003-4.74-0.004-7.165
						c0-1.213-0.001-2.435-0.001-3.665c-0.049-0.621,0.141-1.386,0.614-1.888c0.455-0.521,1.144-0.837,1.842-0.832
						c9.96,0.007,19.448,0.014,28.083,0.021c1.079,0.002,2.145,0.003,3.196,0.005c0.536,0.006,1.026-0.01,1.589,0.015
						c0.572,0.057,1.113,0.324,1.504,0.73c0.397,0.403,0.63,0.951,0.67,1.504c0.017,0.536,0.003,1.012,0.006,1.516
						c-0.002,0.992-0.005,1.968-0.007,2.928c-0.011,3.836-0.022,7.411-0.032,10.679c-0.035,6.506-0.063,11.782-0.083,15.464
						c-0.012,0.916-0.005,1.717-0.034,2.433c-0.076,0.733-0.483,1.262-0.868,1.554C324.538,349.361,323.945,349.194,323.969,349.212
						z"/>
				</g>
			</g>
		</g>
		<g>
			<g>
				<path style="fill:#263238;" d="M307.368,348.929c-0.144,0-0.26-8.225-0.26-18.368c0-10.147,0.117-18.369,0.26-18.369
					s0.26,8.223,0.26,18.369C307.629,340.705,307.512,348.929,307.368,348.929z"/>
			</g>
		</g>
	</g>
</g>
<g id="Lamp">
	<g>
		<g>
			<g>
				<g>
					<polyline style="fill:#F5F5F5;" points="413.97,481.864 413.97,149.275 407.689,149.275 407.689,481.934 					"/>
				</g>
				<g>
					<g>
						<path style="fill:#263238;" d="M407.689,481.934c0,0-0.018-0.581-0.026-1.714c-0.006-1.141-0.014-2.825-0.026-5.032
							c-0.011-4.431-0.027-10.953-0.049-19.353c-0.02-16.816-0.048-41.143-0.082-71.219c-0.02-60.167-0.047-143.328-0.077-235.342
							l0-0.26h0.261c0.974,0,2.031,0,3.089,0c1.093,0,2.185,0,3.192,0h0.26v0.26c-0.03,92.023-0.057,175.166-0.077,235.313
							c-0.035,30.066-0.063,54.383-0.082,71.191c-0.021,8.396-0.038,14.915-0.049,19.343c-0.011,2.206-0.02,3.889-0.026,5.029
							c-0.009,1.133-0.026,1.713-0.026,1.713s-0.018-0.58-0.026-1.713c-0.006-1.14-0.014-2.823-0.026-5.029
							c-0.011-4.428-0.027-10.947-0.049-19.343c-0.02-16.808-0.048-41.125-0.083-71.191c-0.02-60.147-0.047-143.29-0.077-235.313
							l0.26,0.26c-1.006,0-2.098,0-3.192,0c-1.058,0-2.115,0-3.089,0l0.26-0.26c-0.03,92.014-0.057,175.175-0.077,235.342
							c-0.035,30.076-0.063,54.403-0.082,71.219c-0.021,8.4-0.038,14.922-0.049,19.353c-0.011,2.207-0.02,3.891-0.026,5.032
							C407.707,481.354,407.689,481.934,407.689,481.934z"/>
					</g>
				</g>
			</g>
			<g>
				<polygon style="fill:#FF725E;" points="374.95,105.038 351.609,209.335 470.05,209.335 443.41,105.356 				"/>
			</g>
		</g>
		<g>
			<g>
				<path style="fill:#263238;" d="M350.789,240.215c0.004,0.204,1.17-1.045,2.917-2.964c1.83-2.046,4.206-4.702,6.833-7.64
					c2.63-2.939,5.009-5.596,6.84-7.642c0.83-0.901,1.533-1.665,2.106-2.287c0.505-0.533,0.797-0.817,0.824-0.794
					c0.027,0.023-0.213,0.352-0.672,0.927c-0.458,0.574-1.135,1.393-1.982,2.397c-1.693,2.007-4.064,4.752-6.728,7.746
					c-2.664,2.992-5.119,5.664-6.954,7.546c-0.918,0.941-1.681,1.684-2.238,2.169c-0.279,0.242-0.506,0.421-0.676,0.524
					c-0.085,0.051-0.158,0.085-0.22,0.087C350.752,240.277,350.79,240.2,350.789,240.215z"/>
			</g>
		</g>
		<g>
			<g>
				<path style="fill:#263238;" d="M364.784,265.758c-0.125-0.071,5.417-10.008,12.376-22.191
					c6.962-12.187,12.704-22.006,12.829-21.935c0.125,0.071-5.415,10.006-12.377,22.193
					C370.653,256.009,364.909,265.829,364.784,265.758z"/>
			</g>
		</g>
		<g>
			<g>
				<path style="fill:#263238;" d="M468.632,233.126c-0.091,0.111-3.655-2.649-7.961-6.164c-4.307-3.517-7.723-6.457-7.632-6.568
					c0.091-0.111,3.655,2.648,7.961,6.165C465.306,230.074,468.723,233.015,468.632,233.126z"/>
			</g>
		</g>
		<g>
			<g>
				<path style="fill:#263238;" d="M468.632,261.073c-0.014,0.012-0.152-0.121-0.404-0.385c-0.286-0.31-0.643-0.697-1.08-1.169
					c-0.928-1.024-2.277-2.498-3.964-4.303c-3.362-3.619-8.107-8.525-13.359-13.935c-5.254-5.413-9.962-10.364-13.259-14.051
					c-1.654-1.838-2.963-3.352-3.845-4.418c-0.407-0.499-0.74-0.907-1.007-1.234c-0.226-0.286-0.337-0.441-0.324-0.453
					c0.014-0.012,0.152,0.121,0.404,0.385c0.286,0.31,0.643,0.697,1.08,1.169c0.928,1.023,2.277,2.498,3.964,4.302
					c3.362,3.619,8.107,8.525,13.362,13.938c5.252,5.411,9.96,10.362,13.257,14.049c1.654,1.838,2.963,3.352,3.845,4.418
					c0.407,0.499,0.74,0.907,1.007,1.234C468.534,260.905,468.645,261.061,468.632,261.073z"/>
			</g>
		</g>
		<g>
			<g>
				<path style="fill:#263238;" d="M374.425,209.37c-0.142-0.021,3.209-23.38,7.485-52.167c4.277-28.797,7.859-52.117,8.001-52.095
					c0.142,0.021-3.209,23.375-7.486,52.172C378.15,186.066,374.567,209.391,374.425,209.37z"/>
			</g>
		</g>
		<g>
			<g>
				<path style="fill:#263238;" d="M390.187,95.214c-0.13,0.063-2.568-4.724-5.446-10.69c-2.879-5.968-5.107-10.855-4.977-10.918
					c0.129-0.062,2.567,4.723,5.446,10.692C388.088,90.264,390.316,95.152,390.187,95.214z"/>
			</g>
		</g>
		<g>
			<g>
				<path style="fill:#263238;" d="M407.097,58.974c0.144,0,0.26,8.294,0.26,18.522c0,10.232-0.117,18.524-0.26,18.524
					c-0.144,0-0.26-8.292-0.26-18.524C406.836,67.268,406.953,58.974,407.097,58.974z"/>
			</g>
		</g>
		<g>
			<g>
				<path style="fill:#263238;" d="M431.391,69.772c0.134,0.051-1.655,5.104-3.997,11.284c-2.342,6.183-4.349,11.152-4.484,11.101
					c-0.134-0.051,1.655-5.103,3.997-11.285C429.249,74.692,431.257,69.722,431.391,69.772z"/>
			</g>
		</g>
	</g>
</g>
<g id="Character">
	<g>
		<g>
			<g>
				<path style="fill:#263238;" d="M68.632,364.871c0,0-16.19,31.964-16.605,43.172s0,33.624,0,33.624l5.129,40.267h85.366
					l-2.906-75.967c0,0,6.88-18.432,3.29-35.754L68.632,364.871z"/>
			</g>
			<g>
				<g>
					<path style="fill:#455A64;" d="M122.402,381.242c0.015,0.009-0.065,0.164-0.232,0.452c-0.203,0.336-0.451,0.746-0.752,1.243
						c-0.325,0.542-0.739,1.194-1.27,1.917c-0.525,0.727-1.089,1.581-1.815,2.448c-0.7,0.887-1.475,1.853-2.382,2.825
						c-0.865,1.011-1.887,1.998-2.943,3.056c-2.171,2.054-4.697,4.171-7.536,6.136c-2.858,1.939-5.744,3.532-8.443,4.816
						c-1.368,0.604-2.658,1.201-3.912,1.643c-1.234,0.495-2.414,0.87-3.494,1.202c-1.07,0.364-2.07,0.583-2.938,0.81
						c-0.866,0.235-1.623,0.386-2.246,0.493c-0.572,0.101-1.044,0.184-1.431,0.253c-0.328,0.052-0.501,0.071-0.505,0.053
						c-0.003-0.018,0.164-0.071,0.485-0.156c0.38-0.094,0.844-0.209,1.407-0.348c0.614-0.137,1.361-0.316,2.216-0.577
						c0.856-0.253,1.844-0.494,2.9-0.879c1.066-0.353,2.231-0.745,3.45-1.254c1.239-0.456,2.512-1.064,3.864-1.674
						c2.667-1.298,5.52-2.889,8.354-4.812c2.815-1.949,5.327-4.035,7.5-6.054c1.057-1.04,2.083-2.008,2.955-2.999
						c0.914-0.953,1.7-1.898,2.413-2.765c0.74-0.846,1.321-1.68,1.866-2.387c0.551-0.703,0.988-1.336,1.337-1.859
						c0.333-0.475,0.607-0.867,0.832-1.187C122.276,381.369,122.387,381.233,122.402,381.242z"/>
				</g>
			</g>
			<g>
				<g>
					<path style="fill:#455A64;" d="M95.028,481.934c-0.144,0.007-1.073-16.796-2.075-37.526
						c-1.003-20.737-1.699-37.548-1.555-37.555c0.144-0.007,1.073,16.793,2.075,37.53C94.475,465.113,95.171,481.927,95.028,481.934
						z"/>
				</g>
			</g>
			<g>
				<g>
					<path style="fill:#455A64;" d="M93.814,383.843c0.076,0.033-0.369,1.151-0.973,2.991c-0.606,1.839-1.329,4.416-1.833,7.324
						c-0.498,2.909-0.678,5.581-0.722,7.516c-0.046,1.936-0.001,3.138-0.083,3.144c-0.036,0.003-0.086-0.295-0.147-0.838
						c-0.065-0.542-0.115-1.331-0.138-2.307c-0.05-1.951,0.074-4.66,0.578-7.604c0.509-2.942,1.299-5.536,1.998-7.358
						c0.349-0.912,0.659-1.638,0.902-2.127C93.634,384.092,93.782,383.828,93.814,383.843z"/>
				</g>
			</g>
		</g>
		<g>
			<path style="fill:#263238;" d="M151.466,234.141c-3.388-5.014-7.347-10.485-6.492-16.476c0.513-3.597,2.758-6.859,2.779-10.492
				c0.038-6.544-6.916-11.158-8.117-17.591c-1.23-6.59,3.843-12.686,4.637-19.343c0.615-5.157-1.375-10.215-2.489-15.288
				c-2.358-10.741,2.396-27.681-11.715-43.782l-0.914,11.907c-6.546,7.297-8.805,17.368-10.825,26.96
				c-5.119,24.3-10.25,48.926-9.052,73.73c0.423,8.763,1.857,18.008,7.486,24.737c5.823,6.961,15.375,10.024,24.444,9.67
				c5.558-0.217,11.766-2.132,14.147-7.159C157.944,245.544,154.854,239.154,151.466,234.141z"/>
		</g>
		<g>
			<g>
				<path style="fill:#263238;" d="M46.564,171.12c-5.099,4.93-6.374,13.362-2.958,19.579c1.671,3.041,4.314,5.561,5.413,8.851
					c1.285,3.844,0.211,8.145-1.807,11.66c-2.019,3.515-4.907,6.431-7.582,9.476c-6.428,7.316-12.024,17.051-9.225,26.378
					c1.107,3.687,3.458,6.953,4.208,10.729c0.948,4.772-0.78,9.743-0.018,14.547c0.801,5.053,4.59,9.549,9.476,11.069
					s10.627-0.082,13.923-3.996c4.358-5.177,3.942-12.678,4.093-19.443c0.272-12.254,3.206-24.443,8.539-35.479
					c1.553-3.213,3.318-6.362,4.239-9.809c0.92-3.447,0.899-7.329-0.985-10.36"/>
			</g>
			<g>
				<g>
					<g>
						<g>
							<g>
								<g>
									<g>
										<path style="fill:#455A64;" d="M124.896,137.071c-0.123,0.056,0.346,1.259,1.37,2.454
											c1.018,1.201,2.131,1.855,2.206,1.742c0.089-0.12-0.842-0.929-1.813-2.077C125.68,138.05,125.028,137.002,124.896,137.071
											z"/>
									</g>
								</g>
							</g>
						</g>
					</g>
				</g>
				<g>
					<path style="fill:#263238;" d="M68.519,163.715c-2.63-7.348-5.232-14.753-6.559-22.444c-1.327-7.691-1.33-15.749,1.172-23.142
						c0.379-1.121,3.673-8.661,4.853-8.58c0.844,0.058-1.116,7.06-0.669,7.778c4.265,6.851,5.616,15.203,5.204,23.263
						C72.11,148.649,70.651,155.931,68.519,163.715"/>
				</g>
				<g>
					<path style="fill:#FFBE9D;" d="M89.366,227.807c-12.098-0.289-21.747-10.193-21.72-22.294l0.161-72.824
						c-0.58-19.566,10.323-36.211,29.898-36.249l1.809,0.102c18.206,1.028,32.577,15.859,33.016,34.089
						c0.408,16.961-0.659,31.817-1.282,40.87c-1.291,18.739-18.724,21.497-18.724,21.497c-0.042,0-0.303,7.34-0.376,12.852
						C111.982,218.229,101.745,228.102,89.366,227.807L89.366,227.807z"/>
				</g>
				<g>
					<g>
						<g>
							<g>
								<g>
									<g>
										<g>
											<g>
												<path style="fill:#EB996E;" d="M112.523,192.996c0,0-11.988,3.211-24.409-5.015c0,0,5.421,11.168,24.198,9.929
													L112.523,192.996z"/>
											</g>
										</g>
									</g>
								</g>
							</g>
						</g>
					</g>
				</g>
				<g>
					<g>
						<g>
							<g>
								<g>
									<g>
										<g>
											<g>
												<g>
													<g>
														<g>
															<g>
																<g>
																	<g>
																		<path style="fill:#263238;" d="M126.102,145.875c0.016,1.417-1.171,2.599-2.651,2.643
																			c-1.477,0.043-2.69-1.067-2.705-2.484c-0.016-1.417,1.17-2.601,2.647-2.645
																			C124.873,143.345,126.086,144.458,126.102,145.875z"/>
																	</g>
																</g>
															</g>
														</g>
													</g>
												</g>
											</g>
										</g>
									</g>
								</g>
							</g>
						</g>
					</g>
				</g>
				<g>
					<g>
						<g>
							<g>
								<g>
									<g>
										<g>
											<g>
												<g>
													<g>
														<g>
															<g>
																<g>
																	<g>
																		<g>
																			<path style="fill:#263238;" d="M127.315,139.849c-0.341,0.341-2.336-1.211-5.222-1.273
																				c-2.881-0.103-5.035,1.33-5.339,0.969c-0.15-0.16,0.204-0.783,1.142-1.432c0.924-0.646,2.487-1.259,4.285-1.209
																				c1.797,0.053,3.293,0.751,4.146,1.45C127.198,139.057,127.483,139.696,127.315,139.849z"/>
																		</g>
																	</g>
																</g>
															</g>
														</g>
													</g>
												</g>
											</g>
										</g>
									</g>
								</g>
							</g>
						</g>
					</g>
				</g>
				<g>
					<g>
						<g>
							<g>
								<g>
									<g>
										<g>
											<g>
												<g>
													<g>
														<g>
															<g>
																<g>
																	<g>
																		<path style="fill:#263238;" d="M100.133,145.876c0.016,1.417-1.171,2.599-2.651,2.643
																			c-1.477,0.044-2.69-1.066-2.706-2.484c-0.016-1.417,1.171-2.601,2.648-2.645
																			C98.904,143.346,100.116,144.459,100.133,145.876z"/>
																	</g>
																</g>
															</g>
														</g>
													</g>
												</g>
											</g>
										</g>
									</g>
								</g>
							</g>
						</g>
					</g>
				</g>
				<g>
					<g>
						<g>
							<g>
								<g>
									<g>
										<g>
											<g>
												<g>
													<g>
														<g>
															<g>
																<g>
																	<g>
																		<path style="fill:#263238;" d="M108.819,160.429c-0.01-0.164,1.791-0.431,4.707-0.733
																			c0.739-0.058,1.44-0.188,1.576-0.688c0.186-0.528-0.103-1.33-0.439-2.196c-0.65-1.799-1.33-3.686-2.044-5.663
																			c-2.834-8.061-4.866-14.682-4.541-14.793c0.326-0.111,2.887,6.332,5.72,14.393
																			c0.681,1.988,1.332,3.882,1.951,5.695c0.258,0.844,0.715,1.805,0.313,2.901c-0.211,0.546-0.762,0.932-1.237,1.048
																			c-0.476,0.133-0.891,0.131-1.256,0.144C110.641,160.623,108.826,160.593,108.819,160.429z"/>
																	</g>
																</g>
															</g>
														</g>
													</g>
												</g>
											</g>
										</g>
									</g>
								</g>
							</g>
						</g>
					</g>
				</g>
				<g>
					<g>
						<g>
							<g>
								<g>
									<g>
										<g>
											<g>
												<g>
													<g>
														<path style="fill:#263238;" d="M99.846,128.766c-0.366,0.751-3.202,0.079-6.622,0.13
															c-3.422-0.018-6.249,0.682-6.624-0.064c-0.165-0.356,0.388-1.04,1.569-1.68c1.17-0.64,2.988-1.174,5.039-1.186
															c2.051-0.007,3.874,0.508,5.052,1.136C99.447,127.729,100.007,128.408,99.846,128.766z"/>
													</g>
												</g>
											</g>
										</g>
									</g>
								</g>
							</g>
						</g>
					</g>
				</g>
				<g>
					<g>
						<g>
							<g>
								<g>
									<g>
										<g>
											<g>
												<g>
													<g>
														<path style="fill:#263238;" d="M128.434,131.23c-0.575,0.658-2.841-0.013-5.562-0.034
															c-2.719-0.104-5.023,0.462-5.556-0.222c-0.234-0.331,0.126-0.99,1.13-1.615c0.989-0.623,2.647-1.135,4.517-1.093
															c1.87,0.044,3.493,0.632,4.442,1.299C128.369,130.236,128.687,130.91,128.434,131.23z"/>
													</g>
												</g>
											</g>
										</g>
									</g>
								</g>
							</g>
						</g>
					</g>
				</g>
				<g>
					<g>
						<g>
							<g>
								<g>
									<g>
										<g>
											<g>
												<g>
													<g>
														<g>
															<g>
																<g>
																	<g>
																		<g>
																			<g>
																				<g>
																					<g>
																						<path style="fill:#263238;" d="M99.543,139.693c-0.341,0.342-2.339-1.21-5.223-1.272
																							c-2.881-0.103-5.035,1.33-5.339,0.969c-0.149-0.16,0.201-0.783,1.143-1.432
																							c0.924-0.647,2.487-1.26,4.284-1.209c1.797,0.054,3.293,0.752,4.146,1.449
																							C99.423,138.901,99.71,139.541,99.543,139.693z"/>
																					</g>
																				</g>
																			</g>
																		</g>
																	</g>
																</g>
															</g>
														</g>
													</g>
												</g>
											</g>
										</g>
									</g>
								</g>
							</g>
						</g>
					</g>
				</g>
				<g>
					<g>
						<g>
							<g>
								<g>
									<g>
										<g>
											<g>
												<g>
													<g>
														<g>
															<g>
																<g>
																	<g>
																		<g>
																			<g>
																				<path style="fill:#EB996E;" d="M107.805,171.183c-1.372,1.201-2.031,1.407-3.573,1.826
																					c-1.542,0.417-3.976-0.558-4.83-1.79c-0.758-1.094-0.561-2.707,0.301-3.834
																					c0.862-1.128,2.282-1.784,3.681-1.918c2.018-0.193,4.035,0.673,5.175,2.217
																					C108.559,167.684,109.944,169.31,107.805,171.183z"/>
																			</g>
																		</g>
																	</g>
																</g>
															</g>
														</g>
													</g>
												</g>
											</g>
										</g>
									</g>
								</g>
							</g>
						</g>
					</g>
				</g>
				<g>
					<g>
						<g>
							<g>
								<g>
									<g>
										<g>
											<g>
												<g>
													<g>
														<g>
															<g>
																<g>
																	<g>
																		<g>
																			<g>
																				<g>
																					<path style="fill:#263238;" d="M100.532,163.507c0.46-0.021,0.429,3.045,3.027,5.253
																						c2.593,2.215,5.866,1.91,5.885,2.339c0.04,0.192-0.735,0.587-2.115,0.607c-1.354,0.03-3.324-0.428-4.914-1.779
																						c-1.585-1.354-2.252-3.143-2.341-4.402C99.971,164.242,100.322,163.486,100.532,163.507z"/>
																				</g>
																			</g>
																		</g>
																	</g>
																</g>
															</g>
														</g>
													</g>
												</g>
											</g>
										</g>
									</g>
								</g>
							</g>
						</g>
					</g>
				</g>
			</g>
			<g>
				<path style="fill:#263238;" d="M120.758,108.945c1.378,4.562,5.413,7.738,8.059,11.701c3.731,5.589,4.589,12.598,4.67,19.318
					c-0.19-3.166,1.078-6.214,1.698-9.324c1.089-5.464,0.104-11.315-2.713-16.122c-2.817-4.807-7.44-8.526-12.739-10.247"/>
			</g>
			<g>
				<path style="fill:#263238;" d="M121.471,108.795c2.435-4.75,0.413-10.901-3.596-14.425c-4.009-3.524-9.524-4.839-14.855-5.124
					c-10.266-0.549-20.687,2.374-29.169,8.183c-8.482,5.809-14.974,14.469-18.172,24.24c-4.724,14.433-2.344,30.62-8.043,44.697
					c-1.507,3.722-3.554,7.218-4.888,11.006c-1.334,3.788-1.907,8.053-0.404,11.777c1.589,3.94,5.295,6.803,6.58,10.852
					c2.291,7.216-3.636,16.19,1.051,22.136c3.359,4.261,10.214,3.689,14.837,0.85s7.997-7.332,12.388-10.518
					c8.534-6.192,20.857-6.603,29.786-0.994c3.244,2.038,7.229,4.448,9.735,7.345c2.943,3.402,8.716,15.563,9.381,11.789
					c0.474-2.695-4.482-16.415-6.369-18.396c-9.855-10.344-13.634-12.383-28.499-15.264c-2.706-0.525-5.227-0.75-7.844-1.615
					c-10.277-3.397-8.165-13.526-5.871-16.326c2.294-2.801,5.414-5.189,6.325-8.693c1.855-7.136-6.473-14.33-3.895-21.238
					c1.441-3.861,6.014-6.32,6.308-10.431c0.249-3.491-2.808-6.925-1.578-10.202c1.222-3.257,5.677-3.792,8.058-6.328
					c2.687-2.862,2.26-7.744,5.056-10.501c2.807-2.767,7.376-2.11,11.261-1.449c3.886,0.662,8.663,0.776,10.88-2.483"/>
			</g>
			<g>
				<g>
					<path style="fill:#FFFFFF;" d="M42.675,278.88c0,0-0.203-0.015-0.599-0.069c-0.201-0.015-0.444-0.069-0.724-0.172
						c-0.142-0.046-0.295-0.094-0.459-0.147c-0.154-0.078-0.319-0.162-0.492-0.251c-1.412-0.678-3.068-2.584-3.759-5.495
						c-0.341-1.446-0.464-3.123-0.208-4.921c0.302-1.796,0.995-3.641,1.818-5.571c0.824-1.93,1.811-3.946,2.572-6.183
						c0.376-1.118,0.68-2.297,0.833-3.528c0.137-1.233,0.14-2.511,0.022-3.815c-0.253-2.611-0.956-5.284-1.531-8.114
						c-0.543-2.809-1.031-5.906-0.216-8.982c0.319-1.545,1.004-3.01,1.761-4.437c0.42-0.69,0.851-1.385,1.321-2.057
						c0.5-0.648,0.963-1.337,1.513-1.96c2.109-2.568,4.561-4.942,6.848-7.556c0.558-0.664,1.145-1.313,1.663-2.02
						c0.263-0.35,0.543-0.691,0.795-1.051l0.73-1.103c0.258-0.361,0.467-0.751,0.673-1.144c0.205-0.393,0.434-0.776,0.62-1.18
						c0.312-0.832,0.727-1.636,0.902-2.521c0.534-1.72,0.608-3.566,0.473-5.393c-0.13-1.835-0.526-3.668-1.032-5.487
						c-0.988-3.643-2.402-7.27-3.094-11.175c-0.319-1.951-0.415-3.979-0.089-5.976c0.274-2.016,1.113-3.909,2.046-5.695
						c0.941-1.793,1.997-3.494,2.84-5.275c0.857-1.771,1.418-3.652,1.733-5.566c0.63-3.842,0.374-7.716,0.281-11.508
						c-0.126-3.79-0.012-7.593,0.902-11.168c0.863-3.579,2.263-6.916,3.832-10.04c1.566-3.131,3.306-6.062,4.988-8.907
						c1.688-2.842,3.348-5.597,5.125-8.151c3.501-5.119,7.588-9.468,12.25-12.069c2.317-1.299,4.729-2.17,7.079-2.623
						c2.354-0.443,4.624-0.514,6.724-0.369c4.215,0.314,7.699,1.577,10.303,2.969c2.615,1.399,4.384,2.907,5.494,3.992
						c1.084,1.116,1.588,1.76,1.588,1.76s-0.152-0.139-0.428-0.425c-0.285-0.278-0.662-0.737-1.233-1.259
						c-1.129-1.056-2.907-2.528-5.515-3.888c-2.597-1.353-6.059-2.575-10.229-2.858c-2.077-0.13-4.319-0.046-6.639,0.403
						c-2.317,0.461-4.682,1.328-6.961,2.618c-4.583,2.584-8.609,6.893-12.076,11.994c-1.759,2.545-3.406,5.295-5.086,8.139
						c-1.674,2.848-3.403,5.775-4.953,8.889c-1.553,3.106-2.932,6.412-3.778,9.942c-0.895,3.524-1.004,7.253-0.876,11.038
						c0.094,3.781,0.36,7.683-0.28,11.607c-0.319,1.952-0.899,3.896-1.775,5.705c-0.86,1.815-1.92,3.522-2.849,5.293
						c-0.923,1.768-1.731,3.597-1.994,5.537c-0.314,1.926-0.225,3.893,0.087,5.806c0.677,3.832,2.08,7.449,3.076,11.127
						c0.509,1.835,0.911,3.7,1.043,5.582c0.136,1.872,0.056,3.785-0.496,5.562c-0.185,0.915-0.609,1.742-0.934,2.598
						c-0.193,0.415-0.427,0.807-0.638,1.209c-0.212,0.402-0.427,0.801-0.69,1.168l-0.746,1.123c-0.258,0.366-0.541,0.71-0.809,1.065
						c-0.528,0.717-1.12,1.37-1.685,2.039c-2.311,2.631-4.762,4.994-6.855,7.531c-2.111,2.506-3.837,5.271-4.528,8.263
						c-0.801,2.976-0.34,6.008,0.19,8.804c0.56,2.813,1.258,5.507,1.503,8.158c0.114,1.325,0.105,2.631-0.042,3.892
						c-0.163,1.26-0.48,2.459-0.866,3.59c-0.784,2.262-1.786,4.276-2.619,6.193c-0.832,1.913-1.532,3.744-1.84,5.494
						c-0.266,1.758-0.16,3.409,0.16,4.835c0.651,2.871,2.243,4.755,3.612,5.45C41.818,278.876,42.695,278.813,42.675,278.88z"/>
				</g>
			</g>
		</g>
		<g>
			<path style="fill:#FFBE9D;" d="M255.251,251.874l9.191-11.587l20.039-11.607c0,0,2.103,1.363-0.52,4.801
				c-2.624,3.438-11.575,10.812-11.575,10.812s2.83,0.648,4.214,1.765c1.384,1.117,2.19,3.802,2.19,3.802s2.563,2.484,1.57,6.32
				c0,0,1.228,2.509-0.105,6.871c-0.33,1.081-0.662,1.993-0.975,2.755c-0.809,1.97-2.62,3.339-4.734,3.595l0,0L255.251,251.874z"/>
		</g>
		<g>
			<g>
				<path style="fill:#263238;" d="M106.154,204.87c-0.031,0.099-1.668-0.468-4.403-0.918c-1.366-0.235-3.011-0.384-4.839-0.427
					c-1.829-0.01-3.84,0.105-5.925,0.434c-2.082,0.352-4.027,0.882-5.757,1.473c-1.72,0.622-3.233,1.287-4.453,1.944
					c-2.451,1.297-3.822,2.354-3.882,2.27c-0.022-0.029,0.31-0.305,0.93-0.782c0.307-0.243,0.692-0.529,1.165-0.823
					c0.469-0.298,0.989-0.665,1.611-0.989c1.212-0.706,2.73-1.416,4.467-2.072c1.747-0.625,3.72-1.179,5.835-1.535
					c2.119-0.334,4.164-0.437,6.02-0.399c1.855,0.07,3.52,0.26,4.893,0.544c0.693,0.11,1.302,0.291,1.842,0.425
					c0.542,0.128,0.997,0.277,1.366,0.41C105.764,204.679,106.166,204.836,106.154,204.87z"/>
			</g>
		</g>
		<g>
			<g>
				<path style="fill:#FF725E;" d="M93.628,205.954c0,0,19.378-1.909,28.982,10.742c8.317,10.955,20.803,34.018,27.62,39.219
					c6.817,5.201,36.563,22.353,36.563,22.353s49.001-11.468,53.68-14.369c4.679-2.901,14.472-12.237,14.472-12.237l19.6,17.806
					c0,0-73.746,47.992-88.308,46.279c-8.374-0.985-35.9-12.864-57.781-22.782c-23.236-10.532-39.898-32.033-43.452-57.296
					C83.289,223.482,84.957,210.2,93.628,205.954z"/>
			</g>
			<g>
				<g>
					<path style="fill:#263238;" d="M188.625,293.746c-0.063,0.021-0.409-0.783-0.824-2.135c-0.416-1.35-0.876-3.254-1.175-5.393
						c-0.295-2.14-0.37-4.098-0.337-5.51c0.032-1.413,0.146-2.281,0.212-2.278c0.161,0.005,0.042,3.486,0.641,7.717
						C187.717,290.379,188.778,293.698,188.625,293.746z"/>
				</g>
			</g>
			<g>
				<g>
					<path style="fill:#263238;" d="M258.645,254.827c0.091,0.111-1.506,1.574-3.567,3.267c-2.062,1.694-3.807,2.977-3.898,2.865
						c-0.091-0.111,1.506-1.574,3.567-3.268C256.809,255.999,258.554,254.716,258.645,254.827z"/>
				</g>
			</g>
			<g>
				<g>
					<path style="fill:#263238;" d="M265.453,261.271c0.091,0.112-1.252,1.358-3,2.784c-1.748,1.426-3.238,2.492-3.329,2.38
						c-0.091-0.111,1.252-1.358,3-2.784C263.871,262.225,265.362,261.16,265.453,261.271z"/>
				</g>
			</g>
			<g>
				<g>
					<path style="fill:#263238;" d="M270.718,266.292c0.092,0.104-1.447,1.606-3.585,3.167c-2.135,1.565-4.033,2.577-4.104,2.458
						c-0.077-0.127,1.682-1.328,3.797-2.878C268.942,267.493,270.62,266.18,270.718,266.292z"/>
				</g>
			</g>
		</g>
		<g>
			<g>
				<path style="fill:#FF725E;" d="M95.307,204.414c-9.224-2.102-18.795,1.48-24.411,9.093
					c-6.004,8.139-12.179,20.412-12.296,36.821c-0.228,31.955,2.729,97.472,7.747,105.832l-7.77,25.48l91.39-7.911
					c0,0-3.061-85.827-5.773-107.519c-1.879-15.028-16.023-36.936-24.536-48.977c-3.953-5.591-9.837-9.513-16.513-11.034
					L95.307,204.414z"/>
			</g>
			<g>
				<g>
					<path style="fill:#263238;" d="M73.512,380.348c-0.066-0.007-0.02-1.243,0.202-3.23c0.222-1.986,0.643-4.722,1.348-7.693
						c0.709-2.972,1.565-5.604,2.26-7.478c0.697-1.874,1.212-2.998,1.274-2.974c0.072,0.028-0.321,1.198-0.926,3.094
						c-0.604,1.897-1.398,4.528-2.102,7.478c-0.7,2.951-1.175,5.657-1.49,7.623C73.765,379.134,73.589,380.356,73.512,380.348z"/>
				</g>
			</g>
			<g>
				<g>
					<path style="fill:#263238;" d="M94.064,378.569c-0.065,0.001-0.158-1.182-0.134-3.099c0.025-1.915,0.198-4.567,0.684-7.457
						c0.491-2.889,1.2-5.451,1.807-7.268c0.608-1.818,1.085-2.904,1.146-2.882c0.075,0.027-0.279,1.155-0.793,2.989
						c-0.513,1.834-1.159,4.385-1.646,7.247c-0.482,2.862-0.711,5.483-0.83,7.384C94.18,377.387,94.143,378.569,94.064,378.569z"/>
				</g>
			</g>
			<g>
				<g>
					<path style="fill:#263238;" d="M117.168,376.569c-0.144,0.002-0.325-4.402-0.406-9.835c-0.08-5.435-0.029-9.842,0.115-9.844
						c0.144-0.002,0.325,4.401,0.406,9.836C117.363,372.16,117.312,376.567,117.168,376.569z"/>
				</g>
			</g>
			<g>
				<g>
					<path style="fill:#263238;" d="M136.298,374.913c-0.077-0.001-0.12-1.164-0.218-3.038c-0.098-1.874-0.275-4.458-0.639-7.293
						c-0.368-2.836-0.853-5.38-1.233-7.218c-0.381-1.837-0.635-2.973-0.56-2.993c0.064-0.018,0.444,1.085,0.919,2.91
						c0.474,1.824,1.021,4.377,1.391,7.234c0.367,2.857,0.486,5.465,0.491,7.349C136.452,373.751,136.365,374.914,136.298,374.913z"
						/>
				</g>
			</g>
			<g>
				<g>
					<path style="fill:#263238;" d="M140.913,298.581c-0.007,0.016-0.196-0.05-0.549-0.192c-0.404-0.169-0.911-0.383-1.534-0.644
						c-1.329-0.567-3.238-1.421-5.583-2.504c-4.692-2.165-11.111-5.295-18.07-9.005c-6.959-3.715-13.133-7.306-17.544-9.997
						c-2.206-1.345-3.978-2.455-5.189-3.243c-0.564-0.372-1.024-0.675-1.389-0.916c-0.314-0.214-0.475-0.334-0.466-0.349
						c0.009-0.015,0.189,0.075,0.521,0.26c0.379,0.219,0.855,0.494,1.44,0.832c1.306,0.768,3.091,1.818,5.271,3.1
						c4.455,2.608,10.651,6.143,17.601,9.854c6.95,3.706,13.335,6.883,17.982,9.132c2.278,1.097,4.145,1.995,5.51,2.653
						c0.606,0.298,1.101,0.54,1.493,0.733C140.745,298.466,140.92,298.564,140.913,298.581z"/>
				</g>
			</g>
			<g>
				<g>
					<path style="fill:#263238;" d="M101.703,277.995c0,0.079-1.142,0.126-2.977,0.269c-1.835,0.142-4.363,0.414-7.122,0.921
						c-2.759,0.511-5.218,1.16-6.983,1.682c-1.766,0.521-2.848,0.885-2.877,0.811c-0.023-0.06,1.015-0.547,2.764-1.161
						c1.747-0.615,4.216-1.327,7.001-1.843c2.785-0.512,5.345-0.728,7.196-0.777C100.559,277.846,101.703,277.931,101.703,277.995z"
						/>
				</g>
			</g>
			<g style="opacity:0.3;">
				<g>
					<path d="M92.308,272.772c8.923,13.157,24.505,22.13,40.401,22.275C119.067,287.411,105.95,280.408,92.308,272.772"/>
				</g>
			</g>
		</g>
	</g>
</g>
<g id="Desk">
	<g>
		<g>
			<path style="fill:#263238;" d="M473.422,481.934c0,0.144-99.449,0.26-222.098,0.26c-122.691,0-222.119-0.117-222.119-0.26
				s99.428-0.26,222.119-0.26C373.972,481.674,473.422,481.79,473.422,481.934z"/>
		</g>
	</g>
</g>
</svg>
