<svg width="230" height="230" viewBox="0 0 230 230" fill="none" xmlns="http://www.w3.org/2000/svg">
<circle cx="115" cy="115" r="115" fill="#0D7CF2"/>
<path d="M78.28 163C77.2133 163 76.68 162.467 76.68 161.4V79.288C76.68 78.2213 77.2133 77.688 78.28 77.688H96.392C97.4587 77.688 97.992 78.2213 97.992 79.288V161.4C97.992 162.467 97.4587 163 96.392 163H78.28ZM137.497 163C136.516 163 135.662 162.723 134.937 162.168L124.505 152.632L113.945 138.872C113.476 138.275 113.177 137.912 113.049 137.784C112.921 137.613 112.857 137.229 112.857 136.632V103.992C112.857 103.395 112.921 103.011 113.049 102.84C113.22 102.669 113.518 102.307 113.945 101.752L123.737 89.08L134.937 78.52C135.406 78.136 135.769 77.9013 136.025 77.816C136.324 77.7307 136.814 77.688 137.497 77.688H153.305C154.372 77.688 154.905 78.2213 154.905 79.288V89.528C154.905 89.8693 154.862 90.232 154.777 90.616C154.734 90.9573 154.521 91.256 154.137 91.512L142.105 99.768L134.233 109.88V130.808L142.233 140.92L154.137 149.112C154.478 149.325 154.692 149.581 154.777 149.88C154.862 150.179 154.905 150.499 154.905 150.84V161.4C154.905 162.467 154.372 163 153.305 163H137.497Z" fill="white"/>
</svg>
